<svg width="38" height="38" viewBox="0 0 38 38" fill="none" xmlns="http://www.w3.org/2000/svg">
<path fill-rule="evenodd" clip-rule="evenodd" d="M19 0C8.50725 0 0 8.50725 0 19C0 29.4928 8.50725 38 19 38C29.4928 38 38 29.4928 38 19C38 8.50725 29.4928 0 19 0ZM19 3.16667C27.7305 3.16667 34.8333 10.2695 34.8333 19C34.8333 27.7305 27.7305 34.8333 19 34.8333C10.2695 34.8333 3.16667 27.7305 3.16667 19C3.16667 10.2695 10.2695 3.16667 19 3.16667ZM19 7.91667C12.8788 7.91667 7.91667 12.8788 7.91667 19C7.91667 25.1212 12.8788 30.0833 19 30.0833C25.1212 30.0833 30.0833 25.1212 30.0833 19C30.0833 12.8788 25.1212 7.91667 19 7.91667ZM24.0825 23.902C23.8846 24.2297 23.4587 24.3311 23.1325 24.1332C20.5311 22.5419 17.2552 22.1825 13.3966 23.0644C13.0245 23.1483 12.654 22.9156 12.5701 22.5451C12.4846 22.173 12.7158 21.8025 13.0894 21.717C17.3106 20.7528 20.9333 21.1676 23.8545 22.952C24.1791 23.1515 24.282 23.5774 24.0825 23.902ZM25.4394 20.8842C25.1892 21.2911 24.6573 21.4193 24.2503 21.1692C21.2721 19.3388 16.7295 18.8084 13.2066 19.8772C12.749 20.0165 12.2661 19.7584 12.1283 19.3024C11.9906 18.8448 12.2487 18.3635 12.7047 18.2242C16.7295 17.0034 21.7344 17.594 25.1544 19.6967C25.5613 19.9468 25.6896 20.4788 25.4394 20.8842ZM25.5566 17.7428C21.983 15.6212 16.0898 15.4248 12.6793 16.4603C12.1331 16.6266 11.5536 16.3178 11.3873 15.77C11.2211 15.2222 11.5298 14.6427 12.0777 14.4764C15.9932 13.2889 22.5007 13.5185 26.6143 15.96C27.1067 16.2513 27.2682 16.8878 26.9768 17.3803C26.6839 17.8727 26.0474 18.0342 25.5566 17.7428Z" fill="black"/>
</svg>
