<svg width="46" height="46" viewBox="0 0 46 46" fill="none" xmlns="http://www.w3.org/2000/svg">
<path d="M24.2458 19.1667C22.6741 14.7008 18.4191 11.5 13.4166 11.5C7.07246 11.5 1.91663 16.6558 1.91663 23C1.91663 29.3442 7.07246 34.5 13.4166 34.5C18.4191 34.5 22.6741 31.2992 24.2458 26.8333H32.5833V34.5H40.25V26.8333H44.0833V19.1667H24.2458ZM13.4166 26.8333C11.3083 26.8333 9.58329 25.1083 9.58329 23C9.58329 20.8917 11.3083 19.1667 13.4166 19.1667C15.525 19.1667 17.25 20.8917 17.25 23C17.25 25.1083 15.525 26.8333 13.4166 26.8333Z" fill="black"/>
</svg>
